# 3ds Max Wavefront OBJ Exporter v0.97b - (c)2007 guruware
# File Created: 29.03.2014 21:05:57

mtllib Plane512.mtl

#
# object Plane003
#

v  -256.0000 0.0000 256.0000
v  256.0000 0.0000 256.0000
v  256.0000 0.0000 -256.0000
v  -256.0000 0.0000 -256.0000
# 4 vertices

vn 0.0000 1.0000 -0.0000
# 1 vertex normals

vt 0.0000 0.0000 0.0000
vt 1.0000 0.0000 0.0000
vt 1.0000 1.0000 0.0000
vt 0.0000 1.0000 0.0000
# 4 texture coords

g Plane003
usemtl wire_086086086
f 1/1/1 2/2/1 3/3/1 4/4/1 
# 1 polygons

