# 3ds Max Wavefront OBJ Exporter v0.97b - (c)2007 guruware
# File Created: 22.03.2014 19:16:58

mtllib Stair128.mtl

#
# object StraightStair001
#

v  12.8000 3.2000 0.0000
v  12.8000 6.4000 0.0000
v  19.2000 6.4000 0.0000
v  128.0000 0.0000 0.0000
v  19.2000 9.6000 0.0000
v  25.6000 9.6000 0.0000
v  25.6000 12.8000 0.0000
v  32.0000 12.8000 0.0000
v  32.0000 16.0000 0.0000
v  38.4000 16.0000 0.0000
v  38.4000 19.2000 0.0000
v  44.8000 19.2000 0.0000
v  44.8000 22.4000 0.0000
v  51.2000 22.4000 0.0000
v  51.2000 25.6000 0.0000
v  57.6000 25.6000 0.0000
v  57.6000 28.8000 0.0000
v  64.0000 28.8000 0.0000
v  64.0000 32.0000 0.0000
v  70.4000 32.0000 0.0000
v  70.4000 35.2000 0.0000
v  76.8000 35.2000 0.0000
v  76.8000 38.4000 0.0000
v  83.2000 38.4000 0.0000
v  83.2000 41.6000 0.0000
v  89.6000 41.6000 0.0000
v  89.6000 44.8000 0.0000
v  96.0000 44.8000 0.0000
v  96.0000 48.0000 0.0000
v  102.4000 48.0000 0.0000
v  102.4000 51.2000 0.0000
v  108.8000 51.2000 0.0000
v  108.8000 54.4000 0.0000
v  115.2000 54.4000 0.0000
v  115.2000 57.6000 0.0000
v  121.6000 57.6000 0.0000
v  121.6000 60.8000 0.0000
v  128.0000 60.8000 0.0000
v  6.4000 0.0000 0.0000
v  6.4000 3.2000 0.0000
v  128.0000 60.8000 64.0000
v  121.6000 60.8000 64.0000
v  121.6000 57.6000 64.0000
v  128.0000 0.0000 64.0000
v  115.2000 57.6000 64.0000
v  115.2000 54.4000 64.0000
v  108.8000 54.4000 64.0000
v  108.8000 51.2000 64.0000
v  102.4000 51.2000 64.0000
v  102.4000 48.0000 64.0000
v  96.0000 48.0000 64.0000
v  96.0000 44.8000 64.0000
v  89.6000 44.8000 64.0000
v  89.6000 41.6000 64.0000
v  83.2000 41.6000 64.0000
v  83.2000 38.4000 64.0000
v  76.8000 38.4000 64.0000
v  76.8000 35.2000 64.0000
v  70.4000 35.2000 64.0000
v  70.4000 32.0000 64.0000
v  64.0000 32.0000 64.0000
v  64.0000 28.8000 64.0000
v  57.6000 28.8000 64.0000
v  57.6000 25.6000 64.0000
v  51.2000 25.6000 64.0000
v  51.2000 22.4000 64.0000
v  44.8000 22.4000 64.0000
v  44.8000 19.2000 64.0000
v  38.4000 19.2000 64.0000
v  38.4000 16.0000 64.0000
v  32.0000 16.0000 64.0000
v  32.0000 12.8000 64.0000
v  25.6000 12.8000 64.0000
v  25.6000 9.6000 64.0000
v  19.2000 9.6000 64.0000
v  19.2000 6.4000 64.0000
v  12.8000 6.4000 64.0000
v  12.8000 3.2000 64.0000
v  6.4000 0.0000 64.0000
v  6.4000 3.2000 64.0000
# 80 vertices

vn 0.0000 0.0000 -1.0000
vn -0.0000 0.0000 1.0000
vn 0.0000 1.0000 -0.0000
vn -1.0000 0.0000 -0.0000
vn -1.0000 -0.0000 -0.0000
vn 0.0000 -1.0000 -0.0000
vn 1.0000 0.0000 0.0000
# 7 vertex normals

g StraightStair001
usemtl wire_085028177
f 1//1 2//1 3//1 4//1 
f 3//1 5//1 6//1 4//1 
f 6//1 7//1 8//1 4//1 
f 8//1 9//1 10//1 4//1 
f 10//1 11//1 12//1 4//1 
f 12//1 13//1 14//1 4//1 
f 14//1 15//1 16//1 4//1 
f 16//1 17//1 18//1 4//1 
f 18//1 19//1 20//1 4//1 
f 20//1 21//1 22//1 4//1 
f 22//1 23//1 24//1 4//1 
f 24//1 25//1 26//1 4//1 
f 26//1 27//1 28//1 4//1 
f 28//1 29//1 30//1 4//1 
f 30//1 31//1 32//1 4//1 
f 32//1 33//1 34//1 4//1 
f 34//1 35//1 36//1 4//1 
f 36//1 37//1 38//1 4//1 
f 1//1 4//1 39//1 40//1 
f 41//2 42//2 43//2 44//2 
f 43//2 45//2 46//2 44//2 
f 46//2 47//2 48//2 44//2 
f 48//2 49//2 50//2 44//2 
f 50//2 51//2 52//2 44//2 
f 52//2 53//2 54//2 44//2 
f 54//2 55//2 56//2 44//2 
f 56//2 57//2 58//2 44//2 
f 58//2 59//2 60//2 44//2 
f 60//2 61//2 62//2 44//2 
f 62//2 63//2 64//2 44//2 
f 64//2 65//2 66//2 44//2 
f 66//2 67//2 68//2 44//2 
f 68//2 69//2 70//2 44//2 
f 70//2 71//2 72//2 44//2 
f 72//2 73//2 74//2 44//2 
f 74//2 75//2 76//2 44//2 
f 76//2 77//2 78//2 44//2 
f 79//2 44//2 78//2 80//2 
f 42//3 41//3 38//3 37//3 
f 43//4 42//4 37//4 36//4 
f 45//3 43//3 36//3 35//3 
f 46//5 45//5 35//5 34//5 
f 47//3 46//3 34//3 33//3 
f 48//4 47//4 33//4 32//4 
f 49//3 48//3 32//3 31//3 
f 50//4 49//4 31//4 30//4 
f 51//3 50//3 30//3 29//3 
f 52//4 51//4 29//4 28//4 
f 53//3 52//3 28//3 27//3 
f 54//4 53//4 27//4 26//4 
f 55//3 54//3 26//3 25//3 
f 56//5 55//5 25//5 24//5 
f 57//3 56//3 24//3 23//3 
f 58//4 57//4 23//4 22//4 
f 59//3 58//3 22//3 21//3 
f 60//4 59//4 21//4 20//4 
f 61//3 60//3 20//3 19//3 
f 62//4 61//4 19//4 18//4 
f 63//3 62//3 18//3 17//3 
f 64//5 63//5 17//5 16//5 
f 65//3 64//3 16//3 15//3 
f 66//4 65//4 15//4 14//4 
f 67//3 66//3 14//3 13//3 
f 68//5 67//5 13//5 12//5 
f 69//3 68//3 12//3 11//3 
f 70//4 69//4 11//4 10//4 
f 71//3 70//3 10//3 9//3 
f 72//4 71//4 9//4 8//4 
f 73//3 72//3 8//3 7//3 
f 74//4 73//4 7//4 6//4 
f 75//3 74//3 6//3 5//3 
f 76//4 75//4 5//4 3//4 
f 77//3 76//3 3//3 2//3 
f 78//4 77//4 2//4 1//4 
f 80//3 78//3 1//3 40//3 
f 79//4 80//4 40//4 39//4 
f 44//6 79//6 39//6 4//6 
f 41//7 44//7 4//7 38//7 
# 78 polygons

