# 3ds Max Wavefront OBJ Exporter v0.97b - (c)2007 guruware
# File Created: 30.03.2014 15:48:31

mtllib StoneWallPost48.mtl

#
# object Post
#

v  -23.1920 122.6126 24.0000
v  -23.1920 0.0000 24.0000
v  23.1920 0.0000 24.0000
v  23.1920 122.6126 24.0000
v  24.0000 122.6126 23.1920
v  24.0000 0.0000 23.1920
v  24.0000 0.0000 -23.1920
v  24.0000 122.6126 -23.1920
v  23.1920 122.6126 -24.0000
v  23.1920 0.0000 -24.0000
v  -23.1920 0.0000 -24.0000
v  -23.1920 122.6126 -24.0000
v  -24.0000 122.6126 -23.1920
v  -24.0000 0.0000 -23.1920
v  -24.0000 0.0000 23.1920
v  -24.0000 122.6126 23.1920
v  -27.4346 123.0926 28.2426
v  27.4346 123.0926 28.2426
v  27.4346 127.5200 28.2426
v  -27.4346 127.5200 28.2426
v  28.2426 123.0926 27.4346
v  28.2426 123.0926 -27.4346
v  28.2426 127.5200 -27.4346
v  28.2426 127.5200 27.4346
v  27.4346 123.0926 -28.2426
v  -27.4346 123.0926 -28.2426
v  -27.4346 127.5200 -28.2426
v  27.4346 127.5200 -28.2426
v  -28.2426 123.0926 -27.4346
v  -28.2426 123.0926 27.4346
v  -28.2426 127.5200 27.4346
v  -28.2426 127.5200 -27.4346
v  27.0952 122.6126 27.9032
v  -27.0952 122.6126 27.9032
v  27.9032 122.6126 -27.0952
v  27.9032 122.6126 27.0952
v  -27.0952 122.6126 -27.9032
v  27.0952 122.6126 -27.9032
v  -27.9032 122.6126 27.0952
v  -27.9032 122.6126 -27.0952
v  -27.0952 128.0000 27.9032
v  27.0952 128.0000 27.9032
v  -27.9032 128.0000 -27.0952
v  -27.9032 128.0000 27.0952
v  27.0952 128.0000 -27.9032
v  -27.0952 128.0000 -27.9032
v  27.9032 128.0000 27.0952
v  27.9032 128.0000 -27.0952
# 48 vertices

vn 0.0000 0.0000 1.0000
vn 1.0000 0.0000 -0.0000
vn 0.0000 0.0000 -1.0000
vn -1.0000 0.0000 -0.0000
vn 0.0000 -1.0000 -0.0000
vn 0.0000 0.5773 0.8165
vn -0.8165 0.5774 -0.0000
vn 0.0000 0.5773 -0.8165
vn 0.8165 0.5774 -0.0000
vn 0.0000 -0.5773 0.8165
vn 0.8165 -0.5774 -0.0000
vn 0.0000 -0.5773 -0.8165
vn -0.8165 -0.5774 -0.0000
vn 0.7071 0.0000 0.7071
vn -0.7071 0.0000 0.7071
vn 0.7071 0.0000 -0.7071
vn -0.7071 0.0000 -0.7071
vn 0.5000 0.7071 0.5000
vn -0.5000 0.7071 0.5000
vn -0.5000 0.7071 -0.5000
vn 0.5000 0.7071 -0.5000
vn -0.5000 -0.7071 0.5000
vn 0.5000 -0.7071 0.5000
vn 0.5000 -0.7071 -0.5000
vn -0.5000 -0.7071 -0.5000
vn 0.0000 1.0000 -0.0000
# 26 vertex normals

vt 0.2282 0.5669 -0.0000
vt 0.2282 0.2725 -0.0000
vt 0.3395 0.2725 -0.0000
vt 0.3395 0.5669 -0.0000
vt 0.3423 0.5669 -0.0000
vt 0.3423 0.2725 -0.0000
vt 0.4536 0.2725 -0.0000
vt 0.4536 0.5669 -0.0000
vt 0.0000 0.5669 0.0000
vt 0.0000 0.2725 0.0000
vt 0.1114 0.2725 0.0000
vt 0.1114 0.5669 0.0000
vt 0.1141 0.5669 0.0000
vt 0.1141 0.2725 0.0000
vt 0.2255 0.2725 -0.0000
vt 0.2255 0.5669 -0.0000
vt 0.4143 0.5755 0.0000
vt 0.5460 0.5755 -0.0000
vt 0.5460 0.5861 -0.0000
vt 0.4143 0.5861 0.0000
vt 0.5488 0.5755 -0.0000
vt 0.6805 0.5755 -0.0000
vt 0.6805 0.5861 -0.0000
vt 0.5488 0.5861 -0.0000
vt 0.1454 0.5755 -0.0000
vt 0.2771 0.5755 0.0000
vt 0.2771 0.5861 0.0000
vt 0.1454 0.5861 -0.0000
vt 0.2798 0.5755 0.0000
vt 0.4116 0.5755 0.0000
vt 0.4116 0.5861 0.0000
vt 0.2798 0.5861 0.0000
vt 0.5973 0.4067 0.0000
vt 0.4660 0.4067 0.0000
vt 0.4754 0.3972 0.0000
vt 0.5878 0.3972 0.0000
vt 0.5991 0.2735 0.0000
vt 0.5991 0.4048 0.0000
vt 0.5897 0.3953 0.0000
vt 0.5897 0.2829 0.0000
vt 0.7722 0.0013 0.0000
vt 0.9035 0.0013 0.0000
vt 0.8941 0.0107 0.0000
vt 0.7817 0.0107 0.0000
vt 0.7703 0.1345 0.0000
vt 0.7703 0.0031 0.0000
vt 0.7797 0.0126 0.0000
vt 0.7797 0.1250 0.0000
vt 0.0028 0.5763 0.0087
vt 0.0020 0.5755 -0.0087
vt 0.1348 0.5755 -0.0087
vt 0.1340 0.5763 0.0087
vt 0.0008 0.7094 0.0087
vt 0.0000 0.7103 -0.0087
vt 0.0000 0.5774 -0.0087
vt 0.0008 0.5782 0.0087
vt 0.1340 0.7114 0.0087
vt 0.1348 0.7122 -0.0087
vt 0.0020 0.7122 -0.0087
vt 0.0028 0.7114 0.0087
vt 0.1359 0.5782 0.0087
vt 0.1368 0.5774 -0.0087
vt 0.1368 0.7103 -0.0087
vt 0.1359 0.7094 0.0087
vt 0.5982 0.4079 0.0000
vt 0.4650 0.4079 0.0000
vt 0.6004 0.2725 0.0000
vt 0.6004 0.4058 0.0000
vt 0.7712 0.0000 0.0000
vt 0.9045 0.0000 0.0000
vt 0.7691 0.1355 0.0000
vt 0.7691 0.0022 0.0000
vt 0.4564 0.5669 0.0000
vt 0.4564 0.2725 0.0000
vt 0.6832 0.5861 -0.0000
vt 0.6832 0.5755 -0.0000
vt 0.7722 0.1364 0.0000
vt 0.7817 0.1269 0.0000
vt 0.9054 0.0031 0.0000
vt 0.8960 0.0126 0.0000
vt 0.7712 0.1376 0.0000
vt 0.9067 0.0022 0.0000
# 82 texture coords

g Post
usemtl 01___Default
f 1/1/1 2/2/1 3/3/1 4/4/1 
f 5/5/2 6/6/2 7/7/2 8/8/2 
f 9/9/3 10/10/3 11/11/3 12/12/3 
f 13/13/4 14/14/4 15/15/4 16/16/4 
f 17/17/1 18/18/1 19/19/1 20/20/1 
f 21/21/2 22/22/2 23/23/2 24/24/2 
f 25/25/3 26/26/3 27/27/3 28/28/3 
f 29/29/4 30/30/4 31/31/4 32/32/4 
f 33/33/5 34/34/5 1/35/5 4/36/5 
f 35/37/5 36/38/5 5/39/5 8/40/5 
f 37/41/5 38/42/5 9/43/5 12/44/5 
f 39/45/5 40/46/5 13/47/5 16/48/5 
f 41/49/6 20/50/6 19/51/6 42/52/6 
f 43/53/7 32/54/7 31/55/7 44/56/7 
f 45/57/8 28/58/8 27/59/8 46/60/8 
f 47/61/9 24/62/9 23/63/9 48/64/9 
f 33/33/10 18/65/10 17/66/10 34/34/10 
f 35/37/11 22/67/11 21/68/11 36/38/11 
f 37/41/12 26/69/12 25/70/12 38/42/12 
f 39/45/13 30/71/13 29/72/13 40/46/13 
f 5/5/14 4/4/14 3/3/14 6/6/14 
f 30/30/15 17/17/15 20/20/15 31/31/15 
f 9/73/16 8/8/16 7/7/16 10/74/16 
f 13/13/17 12/12/17 11/11/17 14/14/17 
f 24/24/14 19/19/14 18/18/14 21/21/14 
f 15/15/15 2/2/15 1/1/15 16/16/15 
f 28/75/16 23/23/16 22/22/16 25/76/16 
f 32/32/17 27/27/17 26/26/17 29/29/17 
f 34/77/5 39/45/5 16/48/5 1/78/5 
f 36/38/5 33/33/5 4/36/5 5/39/5 
f 38/42/5 35/79/5 8/80/5 9/43/5 
f 40/46/5 37/41/5 12/44/5 13/47/5 
f 47/61/18 42/52/18 19/51/18 24/62/18 
f 41/49/19 44/56/19 31/55/19 20/50/19 
f 43/53/20 46/60/20 27/59/20 32/54/20 
f 45/57/21 48/64/21 23/63/21 28/58/21 
f 39/45/22 34/77/22 17/81/22 30/71/22 
f 33/33/23 36/38/23 21/68/23 18/65/23 
f 35/79/24 38/42/24 25/70/24 22/82/24 
f 37/41/25 40/46/25 29/72/25 26/69/25 
f 43/53/26 44/56/26 41/49/26 45/57/26 
f 41/49/26 42/52/26 47/61/26 45/57/26 
f 47/61/26 48/64/26 45/57/26 
f 43/53/26 45/57/26 46/60/26 
# 42 polygons - 2 triangles

