# 3ds Max Wavefront OBJ Exporter v0.97b - (c)2007 guruware
# File Created: 29.03.2014 20:17:28

mtllib CycloneTop.mtl

#
# object cyclone001
#

v  -0.0000 0.0000 -11.9604
v  -0.0000 0.0000 -48.2235
v  10.0262 0.0000 -47.1697
v  2.4867 0.0000 -11.6990
v  19.6142 0.0000 -44.0543
v  4.8647 0.0000 -10.9264
v  28.3450 0.0000 -39.0136
v  7.0301 0.0000 -9.6762
v  35.8370 0.0000 -32.2678
v  8.8883 0.0000 -8.0031
v  41.7627 0.0000 -24.1117
v  10.3580 0.0000 -5.9802
v  45.8632 0.0000 -14.9019
v  11.3750 0.0000 -3.6960
v  47.9593 0.0000 -5.0407
v  11.8949 0.0000 -1.2502
v  47.9593 0.0000 5.0407
v  11.8949 0.0000 1.2502
v  45.8632 0.0000 14.9019
v  11.3750 0.0000 3.6960
v  41.7627 0.0000 24.1117
v  10.3580 0.0000 5.9802
v  35.8370 0.0000 32.2678
v  8.8883 0.0000 8.0030
v  28.3450 0.0000 39.0136
v  7.0301 0.0000 9.6761
v  19.6142 0.0000 44.0543
v  4.8647 0.0000 10.9263
v  10.0262 0.0000 47.1696
v  2.4867 0.0000 11.6990
v  -0.0000 0.0000 48.2234
v  -0.0000 0.0000 11.9604
v  -10.0262 0.0000 47.1696
v  -2.4867 0.0000 11.6990
v  -19.6142 0.0000 44.0543
v  -4.8647 0.0000 10.9263
v  -28.3450 0.0000 39.0136
v  -7.0301 0.0000 9.6761
v  -35.8370 0.0000 32.2678
v  -8.8883 0.0000 8.0030
v  -41.7627 0.0000 24.1117
v  -10.3580 0.0000 5.9802
v  -45.8632 0.0000 14.9019
v  -11.3750 0.0000 3.6960
v  -47.9593 0.0000 5.0407
v  -11.8949 0.0000 1.2502
v  -47.9593 0.0000 -5.0407
v  -11.8949 0.0000 -1.2502
v  -45.8632 0.0000 -14.9019
v  -11.3750 0.0000 -3.6960
v  -41.7627 0.0000 -24.1117
v  -10.3580 0.0000 -5.9802
v  -35.8370 0.0000 -32.2678
v  -8.8883 0.0000 -8.0031
v  -28.3450 0.0000 -39.0136
v  -7.0301 0.0000 -9.6762
v  -19.6143 0.0000 -44.0543
v  -4.8647 0.0000 -10.9264
v  -10.0263 0.0000 -47.1697
v  -2.4867 0.0000 -11.6990
# 60 vertices

vn 0.0000 -1.0000 -0.0000
# 1 vertex normals

vt 1.0116 0.4932 0.0000
vt 1.0116 0.9974 0.0000
vt 0.9779 0.9974 0.0000
vt 0.9779 0.4932 0.0000
vt 0.9442 0.9974 0.0000
vt 0.9442 0.4932 0.0000
vt 0.9104 0.9974 0.0000
vt 0.9104 0.4932 0.0000
vt 0.8767 0.9974 0.0000
vt 0.8767 0.4932 0.0000
vt 0.8430 0.9974 0.0000
vt 0.8430 0.4932 0.0000
vt 0.8093 0.9974 0.0000
vt 0.8093 0.4932 0.0000
vt 0.7756 0.9974 0.0000
vt 0.7756 0.4932 0.0000
vt 0.7418 0.9974 0.0000
vt 0.7418 0.4932 0.0000
vt 0.7081 0.9974 0.0000
vt 0.7081 0.4932 0.0000
vt 0.6744 0.9974 0.0000
vt 0.6744 0.4932 0.0000
vt 0.6407 0.9974 0.0000
vt 0.6407 0.4932 0.0000
vt 0.6070 0.9974 0.0000
vt 0.6070 0.4932 0.0000
vt 0.5732 0.9974 0.0000
vt 0.5732 0.4932 0.0000
vt 0.5395 0.9974 0.0000
vt 0.5395 0.4932 0.0000
vt 0.5058 0.9974 0.0000
vt 0.5058 0.4932 0.0000
vt 0.4721 0.9974 0.0000
vt 0.4721 0.4932 0.0000
vt 0.4384 0.9974 0.0000
vt 0.4384 0.4932 0.0000
vt 0.4046 0.9974 0.0000
vt 0.4046 0.4932 0.0000
vt 0.3709 0.9974 0.0000
vt 0.3709 0.4932 0.0000
vt 0.3372 0.9974 0.0000
vt 0.3372 0.4932 0.0000
vt 0.3035 0.9974 0.0000
vt 0.3035 0.4932 0.0000
vt 0.2698 0.9974 0.0000
vt 0.2698 0.4932 0.0000
vt 0.2360 0.9974 0.0000
vt 0.2360 0.4932 0.0000
vt 0.2023 0.9974 0.0000
vt 0.2023 0.4932 0.0000
vt 0.1686 0.9974 0.0000
vt 0.1686 0.4932 0.0000
vt 0.1349 0.9974 0.0000
vt 0.1349 0.4932 0.0000
vt 0.1012 0.9974 0.0000
vt 0.1012 0.4932 0.0000
vt 0.0674 0.9974 0.0000
vt 0.0674 0.4932 0.0000
vt 0.0337 0.9974 0.0000
vt 0.0337 0.4932 0.0000
vt -0.0000 0.9974 0.0000
vt -0.0000 0.4932 0.0000
# 62 texture coords

g cyclone001
usemtl cyclone
f 1/1/1 2/2/1 3/3/1 4/4/1 
f 4/4/1 3/3/1 5/5/1 6/6/1 
f 6/6/1 5/5/1 7/7/1 8/8/1 
f 8/8/1 7/7/1 9/9/1 10/10/1 
f 10/10/1 9/9/1 11/11/1 12/12/1 
f 12/12/1 11/11/1 13/13/1 14/14/1 
f 14/14/1 13/13/1 15/15/1 16/16/1 
f 16/16/1 15/15/1 17/17/1 18/18/1 
f 18/18/1 17/17/1 19/19/1 20/20/1 
f 20/20/1 19/19/1 21/21/1 22/22/1 
f 22/22/1 21/21/1 23/23/1 24/24/1 
f 24/24/1 23/23/1 25/25/1 26/26/1 
f 26/26/1 25/25/1 27/27/1 28/28/1 
f 28/28/1 27/27/1 29/29/1 30/30/1 
f 30/30/1 29/29/1 31/31/1 32/32/1 
f 32/32/1 31/31/1 33/33/1 34/34/1 
f 34/34/1 33/33/1 35/35/1 36/36/1 
f 36/36/1 35/35/1 37/37/1 38/38/1 
f 38/38/1 37/37/1 39/39/1 40/40/1 
f 40/40/1 39/39/1 41/41/1 42/42/1 
f 42/42/1 41/41/1 43/43/1 44/44/1 
f 44/44/1 43/43/1 45/45/1 46/46/1 
f 46/46/1 45/45/1 47/47/1 48/48/1 
f 48/48/1 47/47/1 49/49/1 50/50/1 
f 50/50/1 49/49/1 51/51/1 52/52/1 
f 52/52/1 51/51/1 53/53/1 54/54/1 
f 54/54/1 53/53/1 55/55/1 56/56/1 
f 56/56/1 55/55/1 57/57/1 58/58/1 
f 58/58/1 57/57/1 59/59/1 60/60/1 
f 60/60/1 59/59/1 2/61/1 1/62/1 
# 30 polygons

